# xmcd
#
# Track frame offsets:
#	150
#	16560
#	32763
#	51520
#	66386
#	78188
#	101614
#	111207
#	125165
#	139731
#	157729
#	176126
#	197442
#	212706
#	227140
#	244958
#	263398
#	284785
#	297756
#
# Disc length: 4187 seconds
#
# Revision: 1
# Processed by: cddbd v1.5.2PL0 Copyright (c) Steve Scherf et al.
# Submitted via: audiograbber 1.83.01
#
DISCID=13105913
DTITLE=John Denver - Country Roads
DYEAR=2009
DGENRE=
TTITLE0=Leaving on a jet plane
TTITLE1=Calypso
TTITLE2=Fly away
TTITLE3=The city of New Orleans
TTITLE4=It amazes me
TTITLE5=Sunshine on my shoulders
TTITLE6=The eagle and the hawk
TTITLE7=Starwood in Aspen
TTITLE8=Rhymes and reasons
TTITLE9=Windsong
TTITLE10=Farewell Andromeda
TTITLE11=Back home again
TTITLE12=Friends with you
TTITLE13=Shanghai breezes
TTITLE14=Some day are diamonds (some are stone)
TTITLE15=Dreamland Express
TTITLE16=Along for the ride
TTITLE17=The flower that shattered the stone
TTITLE18=Goodbye again
EXTD=CD2 Leaving on a jet plane
EXTT0=
EXTT1=
EXTT2=
EXTT3=
EXTT4=
EXTT5=
EXTT6=
EXTT7=
EXTT8=
EXTT9=
EXTT10=
EXTT11=
EXTT12=
EXTT13=
EXTT14=
EXTT15=
EXTT16=
EXTT17=
EXTT18=
PLAYORDER=
